<svg width="19" height="19" viewBox="0 0 19 19" fill="none" xmlns="http://www.w3.org/2000/svg">
  <path d="M15.6144 5.32551C15.5094 4.91301 15.0969 4.67301 14.6844 4.76301C12.8994 5.16051 10.9119 5.33301 9.05193 5.33301C7.19193 5.33301 5.20443 5.16051 3.41943 4.76301C3.00693 4.67301 2.59443 4.91301 2.48943 5.32551C2.38443 5.74551 2.63943 6.17301 3.05193 6.27051C4.25943 6.54051 5.56443 6.72801 6.80193 6.83301V15.833C6.80193 16.2455 7.13943 16.583 7.55193 16.583C7.96443 16.583 8.30193 16.2455 8.30193 15.833V12.083H9.80193V15.833C9.80193 16.2455 10.1394 16.583 10.5519 16.583C10.9644 16.583 11.3019 16.2455 11.3019 15.833V6.83301C12.5394 6.72801 13.8444 6.54051 15.0444 6.27051C15.4644 6.17301 15.7194 5.74551 15.6144 5.32551ZM9.05193 4.58301C9.87693 4.58301 10.5519 3.90801 10.5519 3.08301C10.5519 2.25801 9.87693 1.58301 9.05193 1.58301C8.22693 1.58301 7.55193 2.25801 7.55193 3.08301C7.55193 3.90801 8.22693 4.58301 9.05193 4.58301Z" fill="#0073E6" />
</svg>