<svg width="20" height="12" viewBox="0 0 20 12" fill="none" xmlns="http://www.w3.org/2000/svg">
  <path d="M6.75194 10.2931L2.85194 6.39307L6.75194 2.49307C7.14194 2.10307 7.14194 1.48307 6.75194 1.09307C6.66041 1.00043 6.55141 0.926877 6.43125 0.876677C6.31109 0.826477 6.18216 0.800628 6.05194 0.800628C5.92171 0.800628 5.79278 0.826477 5.67262 0.876677C5.55246 0.926877 5.44346 1.00043 5.35194 1.09307L0.761937 5.68307C0.371937 6.07307 0.371937 6.70307 0.761937 7.09307L5.35194 11.6931C5.74194 12.0831 6.36194 12.0831 6.75194 11.6931C7.14194 11.3031 7.14194 10.6831 6.75194 10.2931ZM13.3519 10.2931L17.2519 6.39307L13.3519 2.49307C13.2593 2.40155 13.1857 2.29254 13.1355 2.17238C13.0853 2.05222 13.0595 1.92329 13.0595 1.79307C13.0595 1.66284 13.0853 1.53391 13.1355 1.41375C13.1857 1.29359 13.2593 1.18459 13.3519 1.09307C13.7419 0.703068 14.3619 0.703068 14.7519 1.09307L19.3419 5.68307C19.7319 6.07307 19.7319 6.70307 19.3419 7.09307L14.7519 11.6931C14.3619 12.0831 13.7419 12.0831 13.3519 11.6931C13.2593 11.6015 13.1857 11.4925 13.1355 11.3724C13.0853 11.2522 13.0595 11.1233 13.0595 10.9931C13.0595 10.8628 13.0853 10.7339 13.1355 10.6138C13.1857 10.4936 13.2593 10.3846 13.3519 10.2931Z" fill="white" />
</svg>