<svg width="18" height="19" viewBox="0 0 18 19" fill="none" xmlns="http://www.w3.org/2000/svg">
  <path d="M7.94248 7.26751L4.58998 3.91501C4.52059 3.84549 4.43818 3.79033 4.34745 3.75269C4.25672 3.71505 4.15945 3.69568 4.06123 3.69568C3.963 3.69568 3.86574 3.71505 3.77501 3.75269C3.68428 3.79033 3.60186 3.84549 3.53248 3.91501C3.23998 4.20751 3.23998 4.68001 3.53248 4.97251L6.87748 8.31751L7.94248 7.26751ZM11.5125 4.02751L12.405 4.92001L3.52498 13.8C3.23248 14.0925 3.23248 14.565 3.52498 14.8575C3.81748 15.15 4.28998 15.15 4.58248 14.8575L13.47 5.98501L14.3625 6.87751C14.595 7.11001 15 6.94501 15 6.60751V3.76501C15 3.55501 14.835 3.39001 14.625 3.39001H11.7825C11.445 3.39001 11.28 3.79501 11.5125 4.02751ZM11.1225 10.4475L10.065 11.505L12.4125 13.8525L11.5125 14.7525C11.28 14.985 11.445 15.39 11.7825 15.39H14.625C14.835 15.39 15 15.225 15 15.015V12.1725C15 11.835 14.595 11.67 14.3625 11.91L13.47 12.8025L11.1225 10.4475Z" fill="#CAD0D8" />
</svg>