<svg width="82" height="22" viewBox="0 0 82 22" fill="none" xmlns="http://www.w3.org/2000/svg">
  <g clip-path="url(#clip0_1_651)">
    <path d="M37.787 6.61623C37.5847 6.60894 37.3879 6.68228 37.2397 6.82012C37.0916 6.95796 37.0042 7.14901 36.997 7.35123V11.2032C36.1148 10.4971 34.9886 10.1696 33.8653 10.2926C32.7421 10.4156 31.7134 10.979 31.005 11.8592C30.4005 12.62 30.0707 13.5626 30.069 14.5342C30.0592 15.0938 30.1597 15.6498 30.3648 16.1704C30.57 16.6911 30.8757 17.1662 31.2645 17.5687C31.6533 17.9712 32.1177 18.2931 32.6309 18.5161C33.1442 18.7391 33.6964 18.8587 34.256 18.8682C34.8155 18.8782 35.3716 18.7777 35.8923 18.5726C36.413 18.3675 36.8882 18.0618 37.2907 17.673C37.6932 17.2841 38.0151 16.8197 38.2381 16.3064C38.461 15.7931 38.5806 15.2408 38.5899 14.6812V7.40423C38.5908 7.30031 38.5711 7.19724 38.532 7.10096C38.4929 7.00468 38.4351 6.91709 38.362 6.84323C38.2059 6.69757 38.0004 6.61646 37.787 6.61623ZM36.784 15.5642C36.5138 16.2064 36.0057 16.7192 35.366 16.9952C35.0439 17.1333 34.6976 17.2061 34.3472 17.2095C33.9968 17.2129 33.6492 17.1467 33.3245 17.0148C32.9998 16.8829 32.7046 16.688 32.4557 16.4412C32.2069 16.1945 32.0095 15.9008 31.875 15.5772C31.736 15.2493 31.6644 14.8969 31.6644 14.5407C31.6644 14.1846 31.736 13.8321 31.875 13.5042C32.1403 12.8667 32.6441 12.3579 33.279 12.0862C33.6093 11.9472 33.9641 11.8755 34.3225 11.8755C34.6809 11.8755 35.0356 11.9472 35.366 12.0862C36.008 12.3672 36.516 12.8762 36.784 13.5172C36.923 13.8405 36.9948 14.1888 36.9948 14.5407C36.9948 14.8927 36.923 15.2409 36.784 15.5642ZM46.682 11.5242C45.8828 10.7275 44.8004 10.28 43.672 10.28C42.5435 10.28 41.4611 10.7275 40.662 11.5242C40.2671 11.9197 39.9542 12.389 39.7409 12.9055C39.5276 13.422 39.4182 13.9755 39.419 14.5342C39.4092 15.0938 39.5097 15.6498 39.7148 16.1704C39.92 16.6911 40.2257 17.1662 40.6145 17.5687C41.0033 17.9712 41.4677 18.2931 41.9809 18.5161C42.4942 18.7391 43.0464 18.8587 43.606 18.8682C44.1654 18.8779 44.7213 18.7773 45.2418 18.5721C45.7624 18.3669 46.2374 18.0611 46.6398 17.6723C47.0422 17.2835 47.364 16.8192 47.5869 16.306C47.8098 15.7928 47.9294 15.2407 47.939 14.6812V14.5342C47.939 13.9722 47.832 13.4242 47.619 12.9022C47.4052 12.3831 47.0861 11.9139 46.682 11.5242ZM46.133 15.5502C45.9983 15.8662 45.803 16.1526 45.558 16.3932C45.318 16.6332 45.023 16.8342 44.716 16.9682C44.0631 17.2449 43.3271 17.2509 42.6698 16.985C42.0126 16.7191 41.4878 16.203 41.211 15.5502C41.072 15.2223 41.0004 14.8699 41.0004 14.5137C41.0004 14.1576 41.072 13.8051 41.211 13.4772C41.4878 12.8245 42.0126 12.3084 42.6698 12.0425C43.3271 11.7766 44.0631 11.7826 44.716 12.0592C45.036 12.1932 45.318 12.3942 45.558 12.6342C45.799 12.8752 46 13.1692 46.133 13.4772C46.414 14.1592 46.414 14.9082 46.133 15.5502ZM64.298 11.0562C64.2963 10.9505 64.2735 10.8461 64.231 10.7492C64.1855 10.6567 64.1268 10.5711 64.0569 10.4952C63.9835 10.4224 63.8974 10.3634 63.803 10.3212C63.7058 10.2785 63.6011 10.2557 63.495 10.2542C63.344 10.2546 63.1961 10.2961 63.067 10.3742L58.519 13.3302V7.41823C58.5198 7.20726 58.4372 7.00451 58.2892 6.85412C58.1413 6.70373 57.9399 6.61787 57.729 6.61523C57.5185 6.61547 57.3165 6.69844 57.1667 6.84623C57.0168 6.99402 56.9311 7.19479 56.928 7.40523V17.9852C56.928 18.1992 57.008 18.4002 57.155 18.5472C57.302 18.7072 57.503 18.7872 57.717 18.7872C57.931 18.7872 58.131 18.7072 58.278 18.5472C58.3537 18.4751 58.4132 18.3877 58.4525 18.2908C58.4918 18.1939 58.5101 18.0897 58.506 17.9852V15.2432L59.429 14.6412L62.947 18.5872C63.0179 18.6551 63.102 18.7078 63.1939 18.7421C63.2859 18.7765 63.3839 18.7919 63.482 18.7872C63.5883 18.7924 63.6941 18.7696 63.789 18.7212C63.8843 18.6806 63.9706 18.6215 64.043 18.5472C64.11 18.4672 64.177 18.3872 64.217 18.2932C64.257 18.1992 64.284 18.0932 64.284 17.9852C64.2819 17.7826 64.2058 17.5876 64.07 17.4372L60.806 13.7582L63.99 11.6852C64.0933 11.618 64.1765 11.524 64.2307 11.4132C64.2849 11.3025 64.3082 11.1791 64.298 11.0562ZM51.096 12.6342C51.336 12.3942 51.631 12.1932 51.952 12.0592C52.5769 11.7931 53.2796 11.7741 53.918 12.0062C54.212 12.1262 54.493 12.2862 54.734 12.5012C54.881 12.6212 55.068 12.6752 55.256 12.6752C55.3627 12.6823 55.4697 12.6656 55.5692 12.6261C55.6686 12.5867 55.7581 12.5256 55.831 12.4472C55.9787 12.2925 56.0602 12.0862 56.058 11.8722C56.0599 11.7572 56.0357 11.6433 55.9872 11.539C55.9387 11.4348 55.8671 11.3429 55.778 11.2702C55.0159 10.584 54.0201 10.2155 52.995 10.2402C51.8635 10.241 50.7787 10.6908 49.9786 11.4909C49.1786 12.2909 48.7287 13.3758 48.728 14.5072C48.728 16.8612 50.628 18.7602 52.968 18.7742C53.9934 18.7778 54.9859 18.4122 55.764 17.7442C55.8447 17.669 55.909 17.5778 55.9527 17.4764C55.9965 17.375 56.0187 17.2656 56.018 17.1552C56.025 16.953 55.9514 16.7563 55.8133 16.6083C55.6753 16.4604 55.4842 16.3733 55.282 16.3662H55.229C55.0469 16.3638 54.8688 16.4199 54.721 16.5262C54.4836 16.7363 54.212 16.9041 53.918 17.0222C53.624 17.1292 53.303 17.1822 52.995 17.1822C52.634 17.1822 52.286 17.1152 51.952 16.9682C51.6339 16.8305 51.3437 16.6356 51.096 16.3932C50.596 15.8938 50.314 15.2168 50.3114 14.5101C50.3087 13.8034 50.5858 13.1244 51.082 12.6212C51.096 12.6482 51.096 12.6482 51.096 12.6342ZM80.094 10.8022C79.9407 10.6581 79.7582 10.5487 79.559 10.4812C79.3295 10.4012 79.0916 10.3475 78.8499 10.3212C78.6102 10.2946 78.3692 10.2812 78.1279 10.2812C77.646 10.2812 77.152 10.3612 76.6969 10.5342C76.2419 10.6942 75.827 10.9362 75.453 11.2302V11.0702C75.449 10.9655 75.4243 10.8626 75.3803 10.7674C75.3364 10.6723 75.274 10.5868 75.1969 10.5159C75.1197 10.4449 75.0293 10.39 74.9308 10.3542C74.8323 10.3184 74.7276 10.3024 74.623 10.3072C74.4231 10.3142 74.2333 10.3967 74.0919 10.5381C73.9504 10.6796 73.8679 10.8694 73.861 11.0692V18.0112C73.8649 18.116 73.8896 18.2189 73.9336 18.314C73.9775 18.4092 74.0399 18.4947 74.117 18.5656C74.1942 18.6365 74.2846 18.6915 74.3831 18.7273C74.4816 18.7631 74.5863 18.7791 74.691 18.7742C74.8908 18.7673 75.0806 18.6847 75.222 18.5433C75.3635 18.4019 75.446 18.2121 75.453 18.0122V14.5472C75.453 14.1862 75.52 13.8382 75.667 13.5042C75.8009 13.1832 75.987 12.9022 76.242 12.6612C76.482 12.4212 76.777 12.2202 77.0849 12.0862C77.4157 11.9488 77.7698 11.8761 78.1279 11.8722C78.4889 11.8722 78.837 11.9392 79.171 12.0592C79.278 12.1132 79.385 12.1392 79.506 12.1392C79.6123 12.1444 79.7181 12.1216 79.813 12.0732C79.9083 12.0326 79.9946 11.9735 80.067 11.8992C80.1398 11.8258 80.1988 11.7397 80.241 11.6452C80.281 11.5512 80.3079 11.4442 80.3079 11.3372C80.3131 11.2379 80.2967 11.1386 80.2598 11.0462C80.2228 10.9538 80.1662 10.8706 80.094 10.8022ZM72.7109 12.9022C72.3776 12.1301 71.8273 11.4714 71.1269 11.0059C70.4264 10.5405 69.6059 10.2884 68.7649 10.2802C67.6355 10.2802 66.5522 10.728 65.7523 11.5254C64.9525 12.3228 64.5014 13.4048 64.498 14.5342C64.4987 15.3506 64.7335 16.1497 65.1745 16.8368C65.6156 17.5238 66.2443 18.07 66.9862 18.4107C67.7282 18.7513 68.5522 18.8722 69.3607 18.7588C70.1692 18.6455 70.9283 18.3028 71.548 17.7712L71.574 17.7442C71.6455 17.6907 71.7048 17.6225 71.748 17.5442C71.8698 17.3684 71.9171 17.1516 71.8796 16.941C71.8422 16.7304 71.7229 16.5432 71.548 16.4202C71.3986 16.3229 71.2207 16.2792 71.0432 16.2961C70.8658 16.313 70.6993 16.3895 70.5709 16.5132C70.5439 16.5402 70.464 16.6072 70.464 16.6202L70.45 16.6342C70.225 16.8266 69.9668 16.976 69.688 17.0752C69.394 17.1822 69.0859 17.2352 68.7649 17.2222C68.1876 17.2272 67.6243 17.0444 67.16 16.7012C66.9316 16.5398 66.7324 16.3406 66.5709 16.1122C66.4017 15.8826 66.2751 15.6245 66.1969 15.3502H72.217C72.43 15.3502 72.631 15.2702 72.777 15.1222C72.8551 15.052 72.9163 14.9649 72.9558 14.8675C72.9953 14.7702 73.0121 14.6651 73.005 14.5602C73.0162 13.9937 72.9163 13.4304 72.7109 12.9022ZM66.1969 13.7582C66.277 13.4782 66.3969 13.2232 66.5709 12.9962C66.7319 12.7682 66.933 12.5682 67.161 12.4072C67.388 12.2472 67.641 12.1132 67.909 12.0192C68.177 11.9252 68.471 11.8852 68.7519 11.8852C69.0319 11.8852 69.327 11.9252 69.595 12.0192C70.1315 12.1976 70.599 12.5392 70.9319 12.9962C71.1059 13.2232 71.2259 13.4912 71.32 13.7582H66.1969ZM77.379 17.6372C77.306 17.638 77.234 17.6532 77.1669 17.6819C77.0999 17.7106 77.0392 17.7522 76.9882 17.8044C76.9373 17.8567 76.8972 17.9184 76.8702 17.9862C76.8432 18.0539 76.8299 18.1263 76.831 18.1992C76.831 18.5072 77.085 18.7472 77.393 18.7472C77.5381 18.7467 77.6772 18.6888 77.7799 18.5861C77.8825 18.4835 77.9404 18.3444 77.941 18.1992C77.9416 18.1252 77.9275 18.0519 77.8995 17.9834C77.8715 17.9149 77.8302 17.8527 77.7778 17.8004C77.7255 17.748 77.6633 17.7067 77.5948 17.6787C77.5263 17.6506 77.4529 17.6366 77.379 17.6372ZM77.379 18.6272C77.3218 18.6299 77.2647 18.6212 77.211 18.6018C77.1572 18.5823 77.1078 18.5525 77.0655 18.514C77.0233 18.4754 76.989 18.429 76.9647 18.3772C76.9404 18.3254 76.9266 18.2694 76.924 18.2122C76.9213 18.1551 76.93 18.098 76.9494 18.0442C76.9688 17.9905 76.9987 17.941 77.0372 17.8988C77.0758 17.8565 77.1222 17.8223 77.174 17.798C77.2258 17.7737 77.2818 17.7599 77.339 17.7572C77.3961 17.7544 77.4533 17.7629 77.5072 17.7823C77.561 17.8017 77.6105 17.8315 77.6528 17.8701C77.6951 17.9086 77.7293 17.9552 77.7536 18.007C77.7778 18.0589 77.7915 18.115 77.7939 18.1722V18.1992C77.7965 18.2539 77.7881 18.3084 77.7692 18.3597C77.7503 18.411 77.7212 18.458 77.6839 18.4979C77.6465 18.5378 77.6015 18.5698 77.5515 18.5921C77.5015 18.6143 77.4476 18.6262 77.393 18.6272H77.379Z" fill="#80BFFF" />
    <path d="M77.5129 18.1988C77.544 18.1933 77.572 18.1766 77.5917 18.152C77.6113 18.1273 77.6214 18.0964 77.6199 18.0648C77.6199 18.0118 77.6069 17.9718 77.5669 17.9448C77.5081 17.9174 77.4438 17.9038 77.3789 17.9048C77.3119 17.9048 77.2319 17.9048 77.1649 17.9178V18.4668H77.2849V18.2518H77.3389C77.4059 18.2518 77.4459 18.2788 77.4589 18.3318C77.4729 18.3718 77.4859 18.4258 77.4989 18.4668H77.6329C77.6076 18.4267 77.5937 18.3803 77.5929 18.3328C77.6069 18.2788 77.5669 18.2258 77.5129 18.1988ZM77.3529 18.1588H77.2859V17.9988H77.3529C77.4329 17.9988 77.4729 18.0388 77.4729 18.0788C77.4859 18.1318 77.4189 18.1718 77.3529 18.1588ZM28.6119 8.40785C28.5309 8.34085 27.8089 7.79185 26.2569 7.79185C25.8559 7.79185 25.4409 7.83185 25.0399 7.89885C24.7459 5.85285 23.0469 4.86285 22.9799 4.80885L22.5649 4.56885L22.2979 4.95685C21.9607 5.48345 21.712 6.06179 21.5619 6.66885C21.2819 7.83285 21.4549 8.92885 22.0439 9.86585C21.3339 10.2658 20.1839 10.3608 19.9439 10.3738H0.949923C0.832259 10.3738 0.715746 10.397 0.607039 10.4421C0.498331 10.4871 0.399557 10.5531 0.316355 10.6363C0.233154 10.7195 0.167155 10.8183 0.122127 10.927C0.0770988 11.0357 0.0539231 11.1522 0.0539231 11.2698C0.0272427 12.9346 0.307941 14.59 0.881923 16.1528C1.53692 17.8648 2.51392 19.1358 3.77192 19.9118C5.18892 20.7818 7.50292 21.2758 10.1119 21.2758C11.2879 21.2758 12.4659 21.1688 13.6289 20.9558C15.2466 20.6627 16.8027 20.097 18.2309 19.2828C19.4059 18.6012 20.4629 17.734 21.3609 16.7148C22.8709 15.0158 23.7679 13.1168 24.4229 11.4318H24.6909C26.3359 11.4318 27.3529 10.7758 27.9139 10.2138C28.2889 9.86685 28.5699 9.43885 28.7709 8.95685L28.8909 8.60885L28.6109 8.40885L28.6119 8.40785Z" fill="#80BFFF" />
    <path d="M2.71494 9.82602H5.25693C5.37693 9.82602 5.48394 9.73202 5.48394 9.59802V7.32502C5.48434 7.29505 5.47875 7.2653 5.46749 7.23752C5.45624 7.20975 5.43955 7.1845 5.4184 7.16326C5.39726 7.14202 5.37208 7.12522 5.34435 7.11384C5.31663 7.10247 5.2869 7.09675 5.25693 7.09702H2.71494C2.68497 7.09675 2.65524 7.10247 2.62752 7.11384C2.59979 7.12522 2.57461 7.14202 2.55347 7.16326C2.53232 7.1845 2.51563 7.20975 2.50438 7.23752C2.49312 7.2653 2.48753 7.29505 2.48794 7.32502V9.59802C2.50094 9.73202 2.59494 9.82602 2.71494 9.82602ZM6.21994 9.82602H8.76194C8.88194 9.82602 8.98894 9.73202 8.98894 9.59802V7.32502C8.98934 7.29505 8.98375 7.2653 8.97249 7.23752C8.96124 7.20975 8.94455 7.1845 8.9234 7.16326C8.90226 7.14202 8.87708 7.12522 8.84935 7.11384C8.82163 7.10247 8.7919 7.09675 8.76194 7.09702H6.21994C6.18997 7.09675 6.16024 7.10247 6.13252 7.11384C6.10479 7.12522 6.07961 7.14202 6.05847 7.16326C6.03732 7.1845 6.02063 7.20975 6.00938 7.23752C5.99812 7.2653 5.99253 7.29505 5.99293 7.32502V9.59802C6.00593 9.73202 6.09994 9.82602 6.21994 9.82602ZM9.79193 9.82602H12.3329C12.4529 9.82602 12.5599 9.73202 12.5599 9.59802V7.32502C12.5603 7.29505 12.5547 7.2653 12.5435 7.23752C12.5322 7.20975 12.5155 7.1845 12.4944 7.16326C12.4733 7.14202 12.4481 7.12522 12.4204 7.11384C12.3926 7.10247 12.3629 7.09675 12.3329 7.09702H9.79193C9.76188 7.09661 9.73205 7.10224 9.70421 7.11355C9.67636 7.12487 9.65107 7.14164 9.62982 7.1629C9.60856 7.18415 9.59178 7.20945 9.58047 7.23729C9.56915 7.26513 9.56353 7.29496 9.56394 7.32502V9.59802C9.56394 9.73202 9.65794 9.82602 9.79193 9.82602ZM13.3089 9.82602H15.8519C15.9719 9.82602 16.0789 9.73202 16.0789 9.59802V7.32502C16.0793 7.29505 16.0737 7.2653 16.0625 7.23752C16.0512 7.20975 16.0345 7.1845 16.0134 7.16326C15.9923 7.14202 15.9671 7.12522 15.9394 7.11384C15.9116 7.10247 15.8819 7.09675 15.8519 7.09702H13.3099C13.28 7.09675 13.2502 7.10247 13.2225 7.11384C13.1948 7.12522 13.1696 7.14202 13.1485 7.16326C13.1273 7.1845 13.1106 7.20975 13.0994 7.23752C13.0881 7.2653 13.0825 7.29505 13.0829 7.32502V9.59802C13.0829 9.73202 13.1899 9.82602 13.3099 9.82602H13.3089ZM6.21994 6.57502H8.76194C8.88194 6.57502 8.98894 6.46802 8.98894 6.34802V4.07302C8.9892 4.04313 8.98351 4.01349 8.9722 3.98583C8.96089 3.95817 8.94418 3.93304 8.92304 3.91191C8.90191 3.89078 8.87678 3.87407 8.84912 3.86275C8.82146 3.85144 8.79182 3.84575 8.76194 3.84602H6.21994C6.19005 3.84575 6.16041 3.85144 6.13275 3.86275C6.10509 3.87407 6.07996 3.89078 6.05883 3.91191C6.03769 3.93304 6.02098 3.95817 6.00967 3.98583C5.99836 4.01349 5.99267 4.04313 5.99293 4.07302V6.34702C6.00593 6.46702 6.09994 6.57502 6.21994 6.57502ZM9.79193 6.57502H12.3329C12.4529 6.57502 12.5599 6.46802 12.5599 6.34802V4.07302C12.5602 4.04313 12.5545 4.01349 12.5432 3.98583C12.5319 3.95817 12.5152 3.93304 12.494 3.91191C12.4729 3.89078 12.4478 3.87407 12.4201 3.86275C12.3925 3.85144 12.3628 3.84575 12.3329 3.84602H9.79193C9.76197 3.84562 9.73222 3.85121 9.70444 3.86246C9.67667 3.87371 9.65142 3.8904 9.63018 3.91155C9.60894 3.93269 9.59214 3.95787 9.58076 3.9856C9.56939 4.01333 9.56367 4.04305 9.56394 4.07302V6.34702C9.56394 6.46702 9.65794 6.57502 9.79193 6.57502ZM13.3089 6.57502H15.8519C15.9719 6.57502 16.0789 6.46802 16.0789 6.34802V4.07302C16.0772 4.01337 16.0527 3.95665 16.0105 3.91445C15.9683 3.87226 15.9116 3.84778 15.8519 3.84602H13.3099C13.2801 3.84575 13.2504 3.85144 13.2228 3.86275C13.1951 3.87407 13.17 3.89078 13.1488 3.91191C13.1277 3.93304 13.111 3.95817 13.0997 3.98583C13.0884 4.01349 13.0827 4.04313 13.0829 4.07302V6.34702C13.0829 6.46702 13.1899 6.57402 13.3099 6.57402L13.3089 6.57502ZM13.3089 3.31202H15.8519C15.9719 3.31202 16.0789 3.21802 16.0789 3.08402V0.810017C16.0772 0.750201 16.0525 0.693338 16.0101 0.651116C15.9677 0.608895 15.9108 0.584525 15.8509 0.583017H13.3089C13.2791 0.58275 13.2494 0.588439 13.2218 0.599753C13.1941 0.611066 13.169 0.627777 13.1478 0.648909C13.1267 0.670041 13.11 0.695172 13.0987 0.722833C13.0874 0.750494 13.0817 0.780132 13.0819 0.810017V3.08402C13.0819 3.20402 13.1889 3.31202 13.3089 3.31202ZM16.8539 9.82602H19.3949C19.5149 9.82602 19.6229 9.73202 19.6229 9.59802V7.32502C19.6233 7.29496 19.6177 7.26513 19.6064 7.23729C19.5951 7.20945 19.5783 7.18415 19.5571 7.1629C19.5358 7.14164 19.5105 7.12487 19.4827 7.11355C19.4548 7.10224 19.425 7.09661 19.3949 7.09702H16.8549C16.8249 7.09661 16.7951 7.10224 16.7672 7.11355C16.7394 7.12487 16.7141 7.14164 16.6928 7.1629C16.6716 7.18415 16.6548 7.20945 16.6435 7.23729C16.6322 7.26513 16.6265 7.29496 16.6269 7.32502V9.59802C16.6399 9.73202 16.7339 9.82602 16.8539 9.82602Z" fill="#80BFFF" />
  </g>
  <defs>
    <clipPath id="clip0_1_651">
      <rect width="81" height="21" fill="white" transform="translate(0.0519409 0.583008)" />
    </clipPath>
  </defs>
</svg>