<svg width="19" height="19" viewBox="0 0 19 19" fill="none" xmlns="http://www.w3.org/2000/svg">
  <path d="M16.3044 13.7105L12.7644 10.1705C12.4044 9.81053 12.0219 9.72803 11.5794 9.72803L9.67444 11.633C9.67444 12.0755 9.75694 12.4655 10.1169 12.818L13.6569 16.358C13.9494 16.6505 14.4219 16.6505 14.7144 16.358L16.3044 14.768C16.5969 14.483 16.5969 14.003 16.3044 13.7105Z" fill="#0073E6" />
  <path d="M12.5244 7.20059C12.8169 7.49309 13.2894 7.49309 13.5819 7.20059L14.1144 6.66809L15.7044 8.25809C16.5819 7.38059 16.5819 5.95559 15.7044 5.07809L13.5819 2.95559C13.5126 2.88606 13.4301 2.8309 13.3394 2.79326C13.2487 2.75563 13.1514 2.73626 13.0532 2.73626C12.955 2.73626 12.8577 2.75563 12.767 2.79326C12.6762 2.8309 12.5938 2.88606 12.5244 2.95559L11.9919 3.48809V1.58309C11.9919 1.11809 11.4219 0.870589 11.0844 1.20809L9.17944 3.11309C8.84194 3.45059 9.08944 4.02059 9.55444 4.02059H11.4594L10.9269 4.55309C10.6344 4.84559 10.6344 5.31809 10.9269 5.61059L11.1894 5.87309L9.02194 8.04059L5.93944 4.94309V4.19309C5.93944 3.99059 5.85694 3.80309 5.72194 3.66059L4.20694 2.13809C4.13755 2.06856 4.05514 2.0134 3.96441 1.97576C3.87368 1.93813 3.77642 1.91876 3.67819 1.91876C3.57996 1.91876 3.4827 1.93813 3.39197 1.97576C3.30124 2.0134 3.21882 2.06856 3.14944 2.13809L2.08444 3.20309C1.79194 3.49559 1.79194 3.96809 2.08444 4.26059L3.59944 5.78309C3.74194 5.92559 3.92944 6.00059 4.13194 6.00059H4.88194L7.97944 9.09809L7.34194 9.73559H6.36694C5.96944 9.73559 5.58694 9.89309 5.30944 10.1781L1.76944 13.7181C1.47694 14.0106 1.47694 14.4831 1.76944 14.7756L3.35944 16.3656C3.65194 16.6581 4.12444 16.6581 4.41694 16.3656L7.95694 12.8256C8.24194 12.5406 8.39944 12.1656 8.39944 11.7681V10.8006L12.2619 6.93809L12.5244 7.20059Z" fill="#0073E6" />
</svg>