<svg width="19" height="19" viewBox="0 0 19 19" fill="none" xmlns="http://www.w3.org/2000/svg">
  <path d="M9.05195 1.03556C7.08299 1.02184 5.17404 1.71278 3.67 2.98356C2.16597 4.25434 1.16603 6.02115 0.850844 7.96477C0.535662 9.90839 0.926023 11.9006 1.9514 13.5816C2.97678 15.2626 4.56955 16.5213 6.44195 17.1306C6.85445 17.1981 6.98945 16.9206 6.98945 16.7181V15.3381C4.71695 15.8181 4.23695 14.2431 4.23695 14.2431C3.82445 13.2756 3.27695 13.0056 3.27695 13.0056C2.58695 12.5181 3.35195 12.5181 3.35195 12.5181C4.17695 12.5181 4.64945 13.3431 4.64945 13.3431C5.33945 14.5806 6.57695 14.2431 7.05695 14.0331C7.05658 13.8261 7.09903 13.6213 7.18164 13.4316C7.26425 13.2419 7.38522 13.0713 7.53695 12.9306C5.68445 12.7281 3.75695 12.0381 3.75695 8.80556C3.75695 7.98056 4.10195 7.23056 4.65695 6.67556C4.50988 6.32791 4.43409 5.95428 4.43409 5.57681C4.43409 5.19933 4.50988 4.8257 4.65695 4.47806C4.65695 4.47806 5.33945 4.26806 6.98945 5.30306C8.33945 4.93556 9.76445 4.93556 11.1144 5.30306C12.6894 4.26806 13.3794 4.47806 13.3794 4.47806C13.5265 4.8257 13.6023 5.19933 13.6023 5.57681C13.6023 5.95428 13.5265 6.32791 13.3794 6.67556C14.002 7.23056 14.2794 7.98056 14.2794 8.88056C14.2794 12.0381 12.3519 12.7281 10.4994 12.9306C10.8369 13.2081 11.1144 13.6206 11.1144 14.4456V16.7181C11.1144 16.9206 11.1894 17.1981 11.6619 17.1306C13.5343 16.5213 15.1271 15.2626 16.1525 13.5816C17.1779 11.9006 17.5682 9.90839 17.2531 7.96477C16.9379 6.02115 15.9379 4.25434 14.4339 2.98356C12.9299 1.71278 11.0209 1.02184 9.05195 1.03556Z" fill="#0073E6" />
</svg>