<svg width="62" height="21" viewBox="0 0 62 21" fill="none" xmlns="http://www.w3.org/2000/svg">
  <g clip-path="url(#clip0_1_676)">
    <path fill-rule="evenodd" clip-rule="evenodd" d="M22.469 15.2389H29.722V13.0609H24.75V3.37087H22.469V15.2389ZM34.37 13.1969C33.014 13.1869 32.055 12.1709 32.07 10.7619C32.085 9.35887 33.037 8.38587 34.394 8.38687C35.764 8.38887 36.708 9.37587 36.701 10.7999C36.695 12.2189 35.733 13.2059 34.37 13.1969ZM34.394 6.41387C31.861 6.40487 29.921 8.30087 29.922 10.7849C29.922 13.2749 31.852 15.1669 34.386 15.1649C36.935 15.1639 38.852 13.2869 38.852 10.7939C38.852 8.28988 36.952 6.42287 34.394 6.41387ZM46.05 10.8259C46.033 12.2299 45.077 13.2059 43.722 13.1959C42.366 13.1869 41.406 12.1719 41.422 10.7619C41.436 9.35887 42.388 8.38587 43.746 8.38787C45.106 8.38888 46.044 9.36287 46.05 10.7719V10.8259ZM46.048 7.00887C45.344 6.61535 44.5504 6.41039 43.744 6.41387C41.211 6.40487 39.272 8.30087 39.272 10.7859C39.272 13.2749 41.202 15.1679 43.736 15.1659C44.598 15.1659 45.384 14.9459 46.052 14.5659V15.5109C46.046 16.9299 45.085 17.9139 43.722 17.9139C41.969 17.9139 41.199 16.2169 41.199 16.2169L39.594 17.1909C39.594 17.1909 40.516 19.8829 43.736 19.8829C46.286 19.8809 48.203 18.0049 48.203 15.5109V6.40787H46.048V7.00887ZM55.401 10.8259C55.383 12.2309 54.428 13.2059 53.072 13.1959C51.716 13.1869 50.757 12.1719 50.772 10.7619C50.787 9.35887 51.739 8.38587 53.096 8.38787C54.456 8.38888 55.394 9.36287 55.401 10.7709V10.8259ZM55.399 7.00887C54.695 6.61535 53.9014 6.41039 53.095 6.41387C50.562 6.40487 48.623 8.30087 48.623 10.7859C48.623 13.2749 50.553 15.1679 53.087 15.1659C53.949 15.1659 54.736 14.9459 55.403 14.5659V15.5109C55.397 16.9299 54.437 17.9139 53.073 17.9139C51.321 17.9139 50.55 16.2169 50.55 16.2169L48.946 17.1909C48.946 17.1909 49.868 19.8829 53.087 19.8829C55.637 19.8809 57.554 18.0049 57.554 15.5109V6.40787H55.399V7.00887ZM60.629 6.40787H58.422V15.0399H60.628L60.629 6.40787ZM59.526 5.57387C59.6735 5.57832 59.8205 5.55309 59.9581 5.49969C60.0958 5.44628 60.2213 5.36578 60.3273 5.26297C60.4332 5.16015 60.5175 5.03711 60.575 4.90113C60.6325 4.76516 60.6622 4.61902 60.6622 4.47137C60.6622 4.32373 60.6325 4.17759 60.575 4.04162C60.5175 3.90564 60.4332 3.7826 60.3273 3.67978C60.2213 3.57697 60.0958 3.49647 59.9581 3.44306C59.8205 3.38966 59.6735 3.36443 59.526 3.36887C59.2393 3.37751 58.9673 3.49745 58.7676 3.70327C58.5679 3.90908 58.4562 4.18459 58.4562 4.47137C58.4562 4.75816 58.5679 5.03367 58.7676 5.23948C58.9673 5.4453 59.2393 5.56524 59.526 5.57387ZM18.23 5.03287C17.8114 4.8193 17.3815 4.62901 16.942 4.46287L16.819 4.37487C16.819 4.37487 13.899 2.28487 12.611 1.74287C11.322 1.20087 9.08196 0.0228747 6.80896 0.0848747C5.01296 0.134875 3.90496 0.468875 3.51796 0.562875C3.05796 0.672875 2.75196 0.802875 3.25496 1.03987C3.42296 1.11987 4.14096 1.54687 5.01296 2.04387C6.28596 2.77087 7.88796 3.64787 8.58296 3.80687C9.24996 3.95887 10.348 4.18287 11.75 4.15387C13.35 4.11987 14.129 4.80287 14.286 5.05187C14 4.64487 12.909 4.31787 11.454 4.40787C10.054 4.49487 8.92896 4.40088 8.27396 4.20587C6.98996 3.82387 5.61396 3.25087 4.45696 2.70887C3.98096 2.85387 3.68696 2.97587 3.50996 3.05087C3.10596 3.22187 2.72796 3.52887 3.29496 3.68887C3.69896 3.80287 7.48496 5.15687 8.58696 5.22287C9.21296 5.26087 10.241 5.29787 11.506 5.05887C12.937 4.78887 13.683 5.37687 13.858 5.60387C13.411 6.28387 13.118 7.07387 13.202 7.95087C7.96796 7.02787 6.29796 6.55087 5.11596 6.34687C3.04896 5.99087 0.424956 7.74087 0.101956 9.90887C-0.0810442 11.1409 0.232956 12.2909 0.981956 13.3559C1.80996 14.5349 2.89996 15.5509 3.05896 15.7669C3.15996 15.9509 3.12696 16.4369 3.13396 16.7649C3.14196 17.1329 3.60396 17.4629 3.87396 17.4869C4.03396 17.5019 7.13296 18.4699 7.13296 18.4699L11.723 19.8829C11.723 19.8829 11.793 19.5659 11.807 19.4329C11.843 19.0929 11.584 18.2549 10.508 17.9419C8.92496 17.4649 8.61296 17.3749 8.27596 17.2739C8.09496 17.2189 8.22196 17.2159 8.50296 16.9939C8.98296 16.5869 9.39396 16.0379 9.60396 15.5919C10.541 13.5999 9.36196 11.8259 9.36196 11.8259C9.36196 11.8259 10.098 12.5989 10.374 13.9499C10.72 15.6379 9.57496 16.9769 9.57496 16.9769L10.258 17.1749C10.258 17.1749 14.669 12.7329 15.1 12.2529C15.464 11.8479 16.097 11.5929 16.418 11.4879C17.595 11.1469 19.066 10.4879 19.44 10.2509C19.814 10.0139 20.272 9.17787 20.388 8.97087C20.503 8.76487 20.653 8.49187 20.683 8.18487C20.693 8.07687 20.064 7.23787 20.064 7.23787C20.064 7.23787 19.058 5.53687 18.229 5.03187L18.23 5.03287ZM5.39196 18.7209C5.13196 18.8759 5.04196 19.2879 5.42196 19.5109C5.75896 19.6879 6.89196 19.0669 6.89196 19.0669L5.75496 18.7089C5.75496 18.7089 5.57596 18.6339 5.39196 18.7209Z" fill="#80BFFF" />
  </g>
  <defs>
    <clipPath id="clip0_1_676">
      <rect width="61" height="20" fill="white" transform="translate(0.0519409 0.0830078)" />
    </clipPath>
  </defs>
</svg>