<svg width="91" height="28" viewBox="0 0 91 28" fill="none" xmlns="http://www.w3.org/2000/svg">
  <path d="M9.01445 8.34568L0.583341 3.44568C0.523822 3.41131 0.456258 3.39332 0.387527 3.39356C0.318797 3.39379 0.251357 3.41224 0.192075 3.44702C0.132793 3.4818 0.0837873 3.53166 0.0500485 3.59154C0.0163098 3.65142 -0.000956614 3.71918 7.7765e-06 3.7879V17.4223C7.7765e-06 17.5623 0.0777856 17.6868 0.194452 17.7568L3.34445 19.6079C3.4034 19.6419 3.47025 19.6599 3.53831 19.66C3.60638 19.6601 3.67328 19.6423 3.73233 19.6085C3.79138 19.5746 3.84051 19.5259 3.87481 19.4671C3.90911 19.4083 3.92738 19.3415 3.92779 19.2735V10.3757C3.92822 10.3486 3.93572 10.3221 3.94955 10.2988C3.96338 10.2755 3.98306 10.2562 4.00663 10.2428C4.03021 10.2295 4.05686 10.2225 4.08396 10.2226C4.11106 10.2227 4.13765 10.2299 4.16112 10.2435L9.02223 13.0279C9.25939 13.1632 9.52799 13.2338 9.80105 13.2324C10.0741 13.2311 10.342 13.1578 10.5778 13.0201L15.3222 10.2435C15.3457 10.2299 15.3723 10.2227 15.3994 10.2226C15.4265 10.2225 15.4531 10.2295 15.4767 10.2428C15.5003 10.2562 15.52 10.2755 15.5338 10.2988C15.5476 10.3221 15.5551 10.3486 15.5556 10.3757V14.7312C15.555 14.8641 15.5204 14.9947 15.455 15.1104C15.3897 15.2262 15.2958 15.3232 15.1822 15.3923L10.2978 18.3946C10.2405 18.4295 10.1931 18.4786 10.1604 18.5372C10.1277 18.5958 10.1107 18.6619 10.1111 18.729V23.1157C10.1111 23.2557 10.1811 23.3801 10.29 23.4501L16.6911 27.4946C16.9352 27.6483 17.2171 27.7312 17.5056 27.734C17.794 27.7367 18.0775 27.6592 18.3245 27.5101L26.46 22.6879C26.6934 22.5496 26.8865 22.3526 27.0202 22.1166C27.1539 21.8805 27.2235 21.6136 27.2222 21.3423V12.9346C27.2226 12.8653 27.2046 12.7973 27.1699 12.7374C27.1352 12.6775 27.0851 12.6279 27.0249 12.5938C26.9646 12.5597 26.8963 12.5423 26.8271 12.5435C26.7579 12.5446 26.6902 12.5641 26.6311 12.6001L24.0567 14.1557C23.8282 14.293 23.6388 14.4867 23.5067 14.7182C23.3745 14.9497 23.3042 15.2113 23.3022 15.4779V19.7012C23.3018 19.7691 23.2837 19.8357 23.2495 19.8944C23.2154 19.953 23.1666 20.0017 23.1078 20.0357L18.2933 22.8746C18.0525 23.0158 17.7781 23.0896 17.4989 23.0882C17.2198 23.0868 16.9461 23.0103 16.7067 22.8668L14.1167 21.3112C14.0612 21.2773 14.0152 21.23 13.9827 21.1737C13.9503 21.1174 13.9325 21.0538 13.9309 20.9888C13.9294 20.9238 13.9441 20.8595 13.9739 20.8017C14.0036 20.7439 14.0474 20.6944 14.1011 20.6579L18.7833 17.5701C18.9984 17.4285 19.175 17.2357 19.2971 17.009C19.4193 16.7823 19.4833 16.5288 19.4833 16.2712V3.7879C19.4829 3.71983 19.4647 3.65307 19.4304 3.59428C19.3961 3.53548 19.3469 3.48672 19.2879 3.45287C19.2288 3.41901 19.1619 3.40125 19.0939 3.40135C19.0258 3.40145 18.959 3.41942 18.9 3.45346L10.5778 8.34568C10.3404 8.48365 10.0707 8.55634 9.79612 8.55634C9.52154 8.55634 9.25185 8.48365 9.01445 8.34568Z" fill="#007FFF" />
  <path d="M27.2222 4.16878V6.82878C27.2227 7.09313 27.1559 7.35327 27.028 7.58461C26.9 7.81596 26.7153 8.01089 26.4911 8.151L23.9244 9.74544C23.8653 9.78144 23.7976 9.801 23.7284 9.80211C23.6592 9.80322 23.5909 9.78583 23.5307 9.75174C23.4705 9.71765 23.4204 9.6681 23.3857 9.6082C23.351 9.5483 23.3329 9.48022 23.3333 9.411V6.62655C23.3336 6.35377 23.4056 6.08585 23.5421 5.84968C23.6786 5.61351 23.8749 5.41739 24.1111 5.281L26.6389 3.83433C26.6978 3.8003 26.7647 3.78233 26.8327 3.78223C26.9008 3.78212 26.9677 3.79989 27.0268 3.83374C27.0858 3.8676 27.1349 3.91636 27.1692 3.97515C27.2035 4.03395 27.2218 4.10071 27.2222 4.16878Z" fill="#007FFF" />
  <path d="M39.1844 20.6111V6.45557H42.6844L48.5644 14.6222L45.9822 14.6067L51.8778 6.45557H55.3311V20.6111H51.4889V16.7067C51.4889 15.5478 51.5122 14.4822 51.5667 13.5178C51.6211 12.53 51.73 11.5345 51.8933 10.5389L52.2978 11.7911L47.9111 17.4533H46.5733L42.2022 11.7367L42.6533 10.5389C42.8089 11.5111 42.9178 12.4833 42.9722 13.4556C43.0267 14.42 43.05 15.5089 43.05 16.7067V20.6111H39.1922H39.1844ZM66.3133 20.7356C64.9367 20.7356 63.7156 20.4633 62.6578 19.9267C61.6408 19.4214 60.7844 18.6431 60.1844 17.6789C59.5992 16.694 59.3002 15.5655 59.3211 14.42V6.45557H63.3656V14.3033C63.3656 14.8945 63.49 15.4156 63.7467 15.8589C64.0033 16.3022 64.3533 16.6445 64.7967 16.8933C65.2637 17.1393 65.7856 17.2625 66.3133 17.2511C66.9044 17.2511 67.4333 17.1345 67.8922 16.8933C68.3589 16.6445 68.7244 16.3022 68.9811 15.8589C69.2533 15.4156 69.3856 14.8945 69.3856 14.3033V6.45557H73.3133V14.42C73.3311 15.5597 73.0266 16.6812 72.4349 17.6555C71.8432 18.6297 70.9884 19.417 69.9689 19.9267C68.9344 20.4633 67.7133 20.7356 66.3133 20.7356ZM77.5211 20.6111V17.2511H80.78V9.81557H77.5211V6.45557H88.0211V9.81557H84.7778V17.2511H88.0133V20.6111H77.5133H77.5211Z" fill="#090B0B" />
</svg>