<svg width="19" height="19" viewBox="0 0 19 19" fill="none" xmlns="http://www.w3.org/2000/svg">
  <path d="M14.3019 2.33301H3.80194C2.97694 2.33301 2.30194 3.00801 2.30194 3.83301V14.333C2.30194 15.158 2.97694 15.833 3.80194 15.833H14.3019C15.1269 15.833 15.8019 15.158 15.8019 14.333V3.83301C15.8019 3.00801 15.1269 2.33301 14.3019 2.33301ZM9.80194 12.833H6.05194C5.63944 12.833 5.30194 12.4955 5.30194 12.083C5.30194 11.6705 5.63944 11.333 6.05194 11.333H9.80194C10.2144 11.333 10.5519 11.6705 10.5519 12.083C10.5519 12.4955 10.2144 12.833 9.80194 12.833ZM12.0519 9.83301H6.05194C5.63944 9.83301 5.30194 9.49551 5.30194 9.08301C5.30194 8.67051 5.63944 8.33301 6.05194 8.33301H12.0519C12.4644 8.33301 12.8019 8.67051 12.8019 9.08301C12.8019 9.49551 12.4644 9.83301 12.0519 9.83301ZM12.0519 6.83301H6.05194C5.63944 6.83301 5.30194 6.49551 5.30194 6.08301C5.30194 5.67051 5.63944 5.33301 6.05194 5.33301H12.0519C12.4644 5.33301 12.8019 5.67051 12.8019 6.08301C12.8019 6.49551 12.4644 6.83301 12.0519 6.83301Z" fill="#0073E6" />
</svg>