<svg width="29" height="29" viewBox="0 0 29 29" fill="none" xmlns="http://www.w3.org/2000/svg">
  <path fill-rule="evenodd" clip-rule="evenodd" d="M28.0519 6.61749V1.94032C28.0517 1.87021 28.0331 1.80137 27.998 1.74067C27.9629 1.67997 27.9126 1.62953 27.8519 1.59436C27.7912 1.55919 27.7224 1.54053 27.6523 1.54023C27.5822 1.53993 27.5132 1.55801 27.4523 1.59266L24.3723 3.35199C24.2496 3.42226 24.1477 3.52367 24.0768 3.64598C24.0059 3.76828 23.9686 3.90713 23.9686 4.04849V8.72566C23.9686 9.03366 24.3011 9.22732 24.5683 9.07332L27.6483 7.31399C27.7711 7.24362 27.8731 7.14203 27.944 7.0195C28.0149 6.89698 28.0522 6.75905 28.0519 6.61749ZM0.652774 1.59382L9.56961 6.70732C9.69107 6.77691 9.82862 6.81352 9.96861 6.81352C10.1086 6.81352 10.2461 6.77691 10.3676 6.70732L19.2844 1.59382C19.3454 1.55889 19.4145 1.54058 19.4848 1.54073C19.5551 1.54088 19.6241 1.55949 19.6849 1.59469C19.7458 1.62989 19.7963 1.68045 19.8315 1.74132C19.8666 1.80218 19.8852 1.8712 19.8853 1.94149V15.9765C19.8853 16.2507 19.7453 16.505 19.5131 16.6532L14.0881 20.0983L17.7164 22.2357C17.9731 22.3873 18.2939 22.3838 18.5483 22.2252L23.9266 18.8675C23.9842 18.8313 24.0317 18.781 24.0646 18.7214C24.0974 18.6618 24.1146 18.5949 24.1144 18.5268V13.761C24.1144 13.4647 24.2778 13.194 24.5368 13.054L27.4616 11.4837C27.5227 11.451 27.5912 11.4348 27.6605 11.4365C27.7297 11.4382 27.7974 11.4578 27.8568 11.4934C27.9162 11.529 27.9654 11.5793 27.9996 11.6396C28.0338 11.6998 28.0518 11.7679 28.0519 11.8372V20.6233C28.0519 20.908 27.9003 21.1717 27.6553 21.3152L18.5156 26.6725C18.3896 26.7462 18.2459 26.7842 18.1 26.7824C17.954 26.7805 17.8113 26.7389 17.6873 26.662L10.7421 22.3675C10.6839 22.3315 10.6358 22.2811 10.6026 22.2213C10.5693 22.1615 10.5518 22.0941 10.5519 22.0257V17.7977C10.5519 17.6635 10.6184 17.5387 10.7304 17.464L15.4438 14.321C15.5538 14.2478 15.644 14.1486 15.7065 14.0322C15.769 13.9158 15.8018 13.7858 15.8019 13.6537V8.53199C15.8019 8.50366 15.7943 8.47585 15.78 8.45141C15.7657 8.42697 15.7452 8.40677 15.7205 8.39288C15.6958 8.37899 15.6678 8.37191 15.6395 8.37237C15.6112 8.37283 15.5835 8.38081 15.5593 8.39549L10.3793 11.5035C10.2551 11.578 10.1131 11.6176 9.96835 11.618C9.82355 11.6184 9.68133 11.5797 9.55677 11.5058L4.30444 8.39316C4.28007 8.37881 4.25234 8.37114 4.22406 8.37091C4.19577 8.37068 4.16793 8.37791 4.14333 8.39187C4.11873 8.40583 4.09824 8.42602 4.08392 8.45041C4.0696 8.47481 4.06196 8.50254 4.06177 8.53082V17.786C4.06166 17.8568 4.04279 17.9264 4.00708 17.9876C3.97137 18.0488 3.9201 18.0994 3.85847 18.1344C3.79685 18.1694 3.72707 18.1874 3.65622 18.1866C3.58537 18.1859 3.51598 18.1664 3.45511 18.1302L0.635274 16.4385C0.273608 16.2215 0.0519409 15.8295 0.0519409 15.4072V1.94149C0.0519409 1.63349 0.385608 1.43982 0.652774 1.59382Z" fill="#0073E6" />
</svg>