<svg width="19" height="19" viewBox="0 0 19 19" fill="none" xmlns="http://www.w3.org/2000/svg">
  <path d="M7.07944 4.21555C6.94444 4.69555 6.87694 5.19805 6.87694 5.70805C6.87694 8.76805 9.36694 11.2581 12.4269 11.2581C12.9369 11.2581 13.4394 11.1906 13.9194 11.0556C13.1394 12.9756 11.2494 14.3331 9.05194 14.3331C6.15694 14.3331 3.80194 11.9781 3.80194 9.08305C3.80194 6.88555 5.15944 4.99555 7.07944 4.21555ZM9.05194 2.33305C5.32444 2.33305 2.30194 5.35555 2.30194 9.08305C2.30194 12.8106 5.32444 15.8331 9.05194 15.8331C12.7794 15.8331 15.8019 12.8106 15.8019 9.08305C15.8019 8.73805 15.7719 8.39305 15.7269 8.06305C14.9919 9.09055 13.7919 9.75805 12.4269 9.75805C10.1919 9.75805 8.37694 7.94305 8.37694 5.70805C8.37694 4.35055 9.04444 3.14305 10.0719 2.40805C9.74194 2.36305 9.39694 2.33305 9.05194 2.33305Z" fill="#0073E6" />
</svg>