<svg width="62" height="17" viewBox="0 0 62 17" fill="none" xmlns="http://www.w3.org/2000/svg">
  <g clip-path="url(#clip0_1_627)">
    <mask id="mask0_1_627" style="mask-type:luminance" maskUnits="userSpaceOnUse" x="0" y="0" width="62" height="16">
      <path d="M0.811941 0.0922852H61.2919V15.8972H0.811941V0.0922852Z" fill="white" />
    </mask>
    <g mask="url(#mask0_1_627)">
      <path fill-rule="evenodd" clip-rule="evenodd" d="M15.5695 14.3853H17.5961V10.2155H20.0203C20.9856 10.2155 21.7988 10.0421 22.4367 9.69991C23.0492 9.38388 23.5531 8.89201 23.8839 8.2875C24.2088 7.67004 24.3739 6.98106 24.3639 6.28348C24.3737 5.5863 24.2086 4.8978 23.8839 4.28074C23.5533 3.67801 23.0506 3.18743 22.4399 2.87156C21.8046 2.52544 20.9959 2.35205 20.0365 2.35205H15.5695V14.3853ZM19.8436 8.5271H17.5942L17.5961 4.06126H19.8352C20.4269 4.06126 20.9115 4.15737 21.2759 4.34567C21.6162 4.51342 21.8931 4.7868 22.0651 5.12496C22.2374 5.48671 22.3233 5.88353 22.3159 6.2841C22.3224 6.68462 22.2366 7.08125 22.0651 7.44328C21.8944 7.78423 21.6193 8.06178 21.2798 8.23554C20.9187 8.42904 20.4354 8.5271 19.8436 8.5271Z" fill="white" />
      <path fill-rule="evenodd" clip-rule="evenodd" d="M26.6075 14.2497C27.1162 14.4763 27.668 14.59 28.2249 14.5828C28.7439 14.5828 29.1954 14.5056 29.5669 14.3555C29.9075 14.2226 30.2198 14.0265 30.4874 13.7776C30.6516 13.6224 30.7964 13.448 30.9187 13.2581V14.3854H32.851V8.19216C32.851 7.51096 32.731 6.94599 32.4944 6.51285C32.2794 6.1024 31.9611 5.75507 31.5708 5.505C31.2048 5.27527 30.8007 5.11257 30.3776 5.02445C29.9874 4.94122 29.5898 4.89769 29.1908 4.89456C28.6474 4.8928 28.1069 4.97472 27.5883 5.13745C27.0844 5.29536 26.6195 5.55805 26.2243 5.90827C25.8093 6.28764 25.4966 6.76533 25.3149 7.29731L25.2811 7.39082L27.1389 7.81681L27.1668 7.74668C27.2915 7.43694 27.5299 7.1499 27.8579 6.90249C28.1859 6.65506 28.6491 6.52909 29.2253 6.52909C29.7748 6.52909 30.1944 6.66546 30.4685 6.93236C30.7426 7.19925 30.8823 7.58498 30.8823 8.07919V8.12009C30.8823 8.30256 30.8174 8.42985 30.6874 8.50973C30.5426 8.59609 30.3022 8.66234 29.9775 8.70455C29.6371 8.74804 29.1863 8.80066 28.6361 8.86039C28.2011 8.91447 27.7694 8.99206 27.3428 9.09287C26.9359 9.18651 26.5449 9.33968 26.1827 9.54744C25.8355 9.74587 25.5448 10.0298 25.3383 10.3722C25.131 10.7163 25.0252 11.1618 25.0252 11.6969C25.0252 12.31 25.1687 12.8379 25.4513 13.2678C25.7357 13.6981 26.1367 14.0387 26.6075 14.2497ZM30.6283 10.0533C30.7162 10.0276 30.8019 9.99525 30.8849 9.95658L30.8862 10.9917C30.886 11.3325 30.7935 11.6668 30.6186 11.9593C30.4327 12.2706 30.1655 12.5254 29.8456 12.6964C29.5085 12.8827 29.0986 12.9775 28.6114 12.9775C28.1242 12.9775 27.715 12.8619 27.4097 12.6528C27.1044 12.4437 26.955 12.1392 26.955 11.7216C26.955 11.4268 27.0349 11.1878 27.1921 11.0105C27.3696 10.8179 27.5931 10.6736 27.8417 10.591C28.1425 10.4865 28.4531 10.4121 28.7686 10.3689C28.9167 10.3527 29.1005 10.3293 29.3227 10.2988C29.5449 10.2683 29.7709 10.2338 29.9996 10.1956C30.2119 10.1614 30.4219 10.1139 30.6283 10.0533Z" fill="white" />
      <path fill-rule="evenodd" clip-rule="evenodd" d="M34.4401 14.3854H36.3933V8.69864C36.3836 8.34382 36.4741 7.99347 36.6543 7.68772C36.8348 7.38197 37.0977 7.13322 37.413 6.96998C37.7489 6.79384 38.1237 6.70453 38.5029 6.71023C38.6853 6.71029 38.8676 6.72114 39.0485 6.7427L39.0695 6.56799C39.0663 6.56762 39.0629 6.56724 39.0597 6.56687L39.0738 5.0072L39.0798 4.89063C38.9278 4.88217 38.7946 4.87762 38.6843 4.87762C38.1522 4.87133 37.6311 5.02741 37.1902 5.32505C36.8116 5.57835 36.5149 5.93615 36.3359 6.355V5.00946H34.4401V14.3854Z" fill="white" />
      <path fill-rule="evenodd" clip-rule="evenodd" d="M42.1088 13.8137C42.6005 14.2748 43.2629 14.5085 44.0783 14.5085C44.2983 14.5081 44.5177 14.4908 44.7348 14.4566C44.9404 14.4262 45.1428 14.3786 45.3403 14.3144L45.4007 14.2942V12.6208L45.2955 12.6415C45.2124 12.6584 44.9059 12.6876 44.7414 12.7032L44.6415 12.713C44.1256 12.7662 43.7625 12.6844 43.5679 12.4662C43.408 12.2889 43.3269 11.9974 43.3269 11.5993V6.62557H45.2196V5.00925H43.3269V2.8208H41.3643V5.00925H40.023V6.62557H41.3643V11.9597C41.3643 12.7279 41.6171 13.3526 42.1088 13.8137Z" fill="white" />
      <path fill-rule="evenodd" clip-rule="evenodd" d="M46.9767 14.3852H48.9305V5.00928H46.9767V14.3852Z" fill="white" />
      <path fill-rule="evenodd" clip-rule="evenodd" d="M46.9974 3.86445H48.9098V1.95264H46.9974V3.86445Z" fill="white" />
      <path fill-rule="evenodd" clip-rule="evenodd" d="M52.1043 13.8456C52.711 14.1827 53.4734 14.3534 54.3725 14.3534C54.9259 14.3621 55.4765 14.2742 55.9998 14.0937C56.4441 13.9378 56.849 13.6864 57.1859 13.3573C57.5062 13.0366 57.7503 12.648 57.9004 12.2202C58.0605 11.7498 58.1392 11.2554 58.1329 10.7584V10.6707H56.2549V10.7584C56.2649 11.1302 56.1953 11.4999 56.0515 11.8429C55.9302 12.1216 55.7243 12.3553 55.463 12.5111C55.2032 12.665 54.8551 12.7436 54.4239 12.7436C53.9262 12.7436 53.5132 12.6365 53.1992 12.4293C52.8855 12.2221 52.6511 11.9046 52.4919 11.4617C52.3328 11.0188 52.2528 10.4532 52.2528 9.78109V9.49342C52.2528 8.78881 52.3387 8.20501 52.4998 7.7803C52.6609 7.35563 52.8993 7.03546 53.2083 6.82766C53.5176 6.61984 53.9015 6.51401 54.3562 6.51401C54.7889 6.51401 55.1437 6.58737 55.4097 6.7309C55.6717 6.87238 55.8776 7.09829 55.9945 7.37186C56.1245 7.66276 56.1894 8.04463 56.1894 8.4992V8.58685H58.1341V8.4992C58.142 7.98032 58.0636 7.46374 57.9022 6.97053C57.7572 6.53805 57.5093 6.14718 57.1799 5.8315C56.8418 5.51747 56.4398 5.28082 56.001 5.13795C55.4796 4.97444 54.935 4.89613 54.3888 4.90612C53.5007 4.90612 52.7439 5.08079 52.1288 5.42562C51.5136 5.77045 51.0407 6.30424 50.7343 6.99196C50.4278 7.67965 50.2717 8.56739 50.2717 9.63108C50.2717 10.6948 50.4225 11.5786 50.7264 12.2786C51.0304 12.9787 51.4976 13.5086 52.1043 13.8456Z" fill="white" />
      <path fill-rule="evenodd" clip-rule="evenodd" d="M59.3838 14.3854H61.3377V1.94824H59.3838V14.3854Z" fill="white" />
      <path d="M11.3485 0.0922852V10.6289H6.08022V5.36056H0.811941V0.0922852L11.3485 0.0922852Z" fill="white" />
      <path d="M6.08022 10.6289H0.811941V15.8966H6.08022V10.6289Z" fill="white" />
    </g>
  </g>
  <defs>
    <clipPath id="clip0_1_627">
      <rect width="60.48" height="16" fill="white" transform="translate(0.811941 0.0830078)" />
    </clipPath>
  </defs>
</svg>