<svg width="18" height="19" viewBox="0 0 18 19" fill="none" xmlns="http://www.w3.org/2000/svg">
  <path d="M9 3.39004V2.04754C9 1.71004 8.595 1.54504 8.3625 1.78504L6.2625 3.87754C6.1125 4.02754 6.1125 4.26004 6.2625 4.41004L8.355 6.50254C8.595 6.73504 9 6.57004 9 6.23254V4.89004C11.4825 4.89004 13.5 6.90754 13.5 9.39004C13.5 9.98254 13.3875 10.56 13.17 11.0775C13.0575 11.3475 13.14 11.655 13.3425 11.8575C13.725 12.24 14.37 12.105 14.5725 11.6025C14.85 10.92 15 10.17 15 9.39004C15 6.07504 12.315 3.39004 9 3.39004ZM9 13.89C6.5175 13.89 4.5 11.8725 4.5 9.39004C4.5 8.79754 4.6125 8.22004 4.83 7.70254C4.9425 7.43254 4.86 7.12504 4.6575 6.92254C4.275 6.54004 3.63 6.67504 3.4275 7.17754C3.15 7.86004 3 8.61004 3 9.39004C3 12.705 5.685 15.39 9 15.39V16.7325C9 17.07 9.405 17.235 9.6375 16.995L11.73 14.9025C11.88 14.7525 11.88 14.52 11.73 14.37L9.6375 12.2775C9.405 12.045 9 12.21 9 12.5475V13.89Z" fill="#CAD0D8" />
</svg>