<svg width="14" height="14" viewBox="0 0 14 14" fill="none" xmlns="http://www.w3.org/2000/svg">
  <path d="M9.67694 8.58305H9.08444L8.87444 8.38055C9.60944 7.52555 10.0519 6.41555 10.0519 5.20805C10.0519 2.51555 7.86944 0.333054 5.17694 0.333054C2.48444 0.333054 0.301941 2.51555 0.301941 5.20805C0.301941 7.90055 2.48444 10.0831 5.17694 10.0831C6.38444 10.0831 7.49444 9.64055 8.34944 8.90555L8.55194 9.11555V9.70805L12.3019 13.4506L13.4194 12.3331L9.67694 8.58305ZM5.17694 8.58305C3.30944 8.58305 1.80194 7.07555 1.80194 5.20805C1.80194 3.34055 3.30944 1.83305 5.17694 1.83305C7.04444 1.83305 8.55194 3.34055 8.55194 5.20805C8.55194 7.07555 7.04444 8.58305 5.17694 8.58305Z" fill="#0073E6" />
</svg>