<svg width="101" height="52" viewBox="0 0 101 52" fill="none" xmlns="http://www.w3.org/2000/svg">
  <g clip-path="url(#clip0_1_330)">
    <path d="M0.300049 0H100.3V52H0.300049V0Z" fill="black" />
    <mask id="mask0_1_330" style="mask-type:luminance" maskUnits="userSpaceOnUse" x="0" y="20" width="101" height="15">
      <path d="M0.300049 20H100.3V34.449H0.300049V20Z" fill="white" />
    </mask>
    <g mask="url(#mask0_1_330)">
      <path d="M59.982 28.212C59.831 28.186 59.323 28.102 59.174 28.074C58.372 27.93 57.686 27.743 57.686 26.936C57.686 26.243 58.412 25.92 59.316 25.92C60.661 25.92 61.84 26.53 61.975 26.597L62.712 24.652C62.428 24.505 61.228 23.863 59.339 23.863C57.608 23.863 55.494 24.773 55.494 27.033C55.494 29.057 56.94 29.707 58.334 29.952C58.526 29.987 59.131 30.09 59.304 30.121C60.241 30.279 60.756 30.628 60.756 31.241C60.756 32.02 60.025 32.385 58.918 32.385C57.145 32.385 56.106 31.857 55.805 31.733L54.988 33.636C55.242 33.766 56.452 34.449 58.813 34.449C61.103 34.449 62.943 33.314 62.943 31.202C62.924 29.237 61.603 28.491 59.982 28.212ZM66.977 20.322L64.809 21.522V24.062H63.668V26.135H64.809V30.617C64.809 32.532 65.596 34.251 68.372 34.251H69.24V32.176H68.915C67.55 32.176 66.977 31.389 66.977 30.319V26.135H69.467V24.06H66.977V20.321M83.916 25.972C84.762 25.972 85.629 26.356 85.889 27.288L87.856 26.539C87.305 24.592 85.496 23.863 83.9 23.863C81.04 23.863 79.888 25.639 79.888 27.365V30.947C79.888 32.672 81.041 34.449 83.9 34.449C85.496 34.449 87.305 33.719 87.856 31.772L85.889 31.024C85.629 31.954 84.762 32.341 83.916 32.341C82.443 32.341 82.052 31.535 82.052 30.615V27.695C82.052 26.777 82.442 25.972 83.916 25.972ZM93.186 28.638L97.24 24.061H94.574L91.087 28.051V20.323H88.917V34.25H91.087V31.007L91.799 30.203L94.904 34.25H97.505L93.186 28.637V28.638Z" fill="#4E4E55" />
      <path d="M75.5321 26.285H73.278C73.106 26.285 72.941 26.3533 72.8191 26.4747C72.6973 26.5962 72.6286 26.761 72.6281 26.933V29.379H70.404V26.933C70.404 26.5557 70.4784 26.1821 70.6229 25.8335C70.7673 25.4849 70.979 25.1682 71.2459 24.9015C71.5128 24.6348 71.8297 24.4233 72.1784 24.2791C72.527 24.1349 72.9007 24.0608 73.278 24.061H75.5321V26.285ZM73.6971 32.028H75.953C76.1253 32.0278 76.2903 31.9592 76.412 31.8373C76.5337 31.7154 76.6021 31.5503 76.6021 31.378V28.933H78.826V31.378C78.826 32.14 78.5234 32.8708 77.9846 33.4096C77.4458 33.9484 76.715 34.251 75.953 34.251H73.6971V32.028ZM36.93 24.061H39.42V26.135H36.93V30.319C36.93 31.389 37.5031 32.176 38.8661 32.176H39.192V34.251H38.323C35.547 34.251 34.7621 32.532 34.7621 30.617V26.135H31.112V30.319C31.112 31.389 31.687 32.176 33.05 32.176H33.3741V34.251H32.5061C29.73 34.251 28.943 32.532 28.943 30.617V26.135H27.844V24.06H28.944V21.52L31.113 20.321V24.061H34.7621V21.521L36.93 20.321V24.061ZM13.524 23.864C12.838 23.864 12.142 23.997 11.516 24.262V20.322H9.34705V34.252H11.516V26.289C11.952 26.015 12.579 25.852 13.192 25.852C14.555 25.852 15.196 26.609 15.196 27.727V34.251H17.363V27.431C17.363 25.374 15.873 23.864 13.523 23.864M24.514 32.225C24.102 32.447 23.58 32.575 23.062 32.575C21.443 32.575 20.835 31.75 20.835 30.613V24.061H18.667V30.653C18.667 33.216 20.147 34.449 22.795 34.449C24.062 34.449 25.465 34.129 26.681 33.602V24.062H24.514V32.225ZM5.29305 28.212C5.14305 28.186 4.63505 28.102 4.48505 28.074C3.68505 27.93 2.99705 27.743 2.99705 26.936C2.99705 26.243 3.72205 25.92 4.62705 25.92C5.97205 25.92 7.15105 26.53 7.28605 26.597L8.02305 24.652C7.74105 24.505 6.54005 23.863 4.64905 23.863C2.91905 23.863 0.805049 24.773 0.805049 27.033C0.805049 29.057 2.24905 29.707 3.64505 29.952C3.83705 29.987 4.44205 30.09 4.61605 30.121C5.55305 30.279 6.06605 30.628 6.06605 31.241C6.06605 32.02 5.33605 32.385 4.23005 32.385C2.45705 32.385 1.41705 31.857 1.11605 31.733L0.300049 33.636C0.554049 33.766 1.76405 34.449 4.12505 34.449C6.41505 34.449 8.25405 33.314 8.25405 31.202C8.23405 29.237 6.91305 28.491 5.29305 28.212ZM46.216 28.384H42.5611V27.642C42.5611 26.815 42.976 25.928 44.4 25.928C45.772 25.928 46.216 26.792 46.216 27.602V28.384ZM48.385 27.365C48.385 25.501 46.965 23.863 44.41 23.863C41.51 23.863 40.397 25.673 40.397 27.365V30.75C40.397 33.09 41.8931 34.449 44.41 34.449C46.6301 34.449 47.7831 33.165 48.125 32.394L46.295 31.294C46.138 31.747 45.414 32.383 44.425 32.383C43.084 32.383 42.5681 31.635 42.5681 30.697L42.5611 30.139H48.385V27.365ZM49.773 27.369V34.252H51.939V27.554C51.939 26.969 52.271 25.97 53.862 25.97C54.112 25.97 54.677 26.04 54.857 26.075V23.973C54.4931 23.8988 54.1225 23.8619 53.751 23.863C50.996 23.863 49.773 25.592 49.773 27.369Z" fill="#E32124" />
      <path d="M99.424 24.64C99.424 24.559 99.374 24.483 99.237 24.483H99.101V24.827H99.237C99.384 24.827 99.424 24.761 99.424 24.655V24.64ZM99.404 25.367C99.3989 25.367 99.3938 25.3657 99.3894 25.363C99.385 25.3604 99.3814 25.3565 99.379 25.352L99.217 24.998H99.1V25.348C99.1 25.358 99.094 25.368 99.085 25.368H98.882C98.872 25.368 98.862 25.358 98.862 25.348V24.3H99.267C99.539 24.3 99.661 24.472 99.661 24.634V24.654C99.6623 24.7244 99.6428 24.7937 99.6049 24.8531C99.567 24.9126 99.5125 24.9595 99.448 24.988L99.651 25.346C99.656 25.356 99.651 25.366 99.641 25.366H99.403L99.404 25.367ZM99.237 24.033C98.777 24.033 98.444 24.393 98.444 24.853C98.444 25.282 98.782 25.646 99.237 25.646C99.697 25.646 100.026 25.282 100.026 24.852C100.026 24.397 99.666 24.033 99.237 24.033ZM99.237 25.883C98.651 25.883 98.176 25.439 98.176 24.853C98.1905 24.582 98.3083 24.3269 98.5052 24.1402C98.7021 23.9534 98.9632 23.8494 99.2345 23.8494C99.5059 23.8494 99.7669 23.9534 99.9639 24.1402C100.161 24.3269 100.279 24.582 100.293 24.853C100.293 25.438 99.823 25.883 99.237 25.883Z" fill="#4E4E55" />
    </g>
  </g>
  <defs>
    <clipPath id="clip0_1_330">
      <rect width="100" height="52" fill="white" transform="translate(0.300049)" />
    </clipPath>
  </defs>
</svg>