<svg width="17" height="17" viewBox="0 0 17 17" fill="none" xmlns="http://www.w3.org/2000/svg">
  <path d="M8.04527 1.41641C4.36527 1.41641 1.38527 4.40308 1.38527 8.08308C1.38527 11.7631 4.36527 14.7497 8.04527 14.7497C11.7319 14.7497 14.7186 11.7631 14.7186 8.08308C14.7186 4.40308 11.7319 1.41641 8.04527 1.41641ZM8.05194 13.4164C5.10527 13.4164 2.7186 11.0297 2.7186 8.08308C2.7186 5.13641 5.10527 2.74975 8.05194 2.74975C10.9986 2.74975 13.3853 5.13641 13.3853 8.08308C13.3853 11.0297 10.9986 13.4164 8.05194 13.4164ZM7.90527 4.74975H7.86527C7.5986 4.74975 7.38527 4.96308 7.38527 5.22975V8.37641C7.38527 8.60975 7.50527 8.82975 7.71194 8.94975L10.4786 10.6097C10.7053 10.7431 10.9986 10.6764 11.1319 10.4497C11.2719 10.2231 11.1986 9.92308 10.9653 9.78975L8.38527 8.25641V5.22975C8.38527 4.96308 8.17194 4.74975 7.90527 4.74975Z" fill="white" />
</svg>