<svg width="57" height="21" viewBox="0 0 57 21" fill="none" xmlns="http://www.w3.org/2000/svg">
  <g clip-path="url(#clip0_1_663)">
    <mask id="mask0_1_663" style="mask-type:luminance" maskUnits="userSpaceOnUse" x="0" y="0" width="56" height="21">
      <path d="M0.0519409 0.116699H55.4189V20.0489H0.0519409V0.116699Z" fill="white" />
    </mask>
    <g mask="url(#mask0_1_663)">
      <path d="M16.7172 16.0311L13.1189 10.0382L16.7172 4.04524L18.4522 10.0382L16.7172 16.0311ZM8.70821 15.4455L4.1855 11.0054H11.3839L14.9821 16.9983L8.70821 15.4455ZM8.70821 4.61094L14.9641 3.05717L11.3649 9.05012H4.16747L8.70821 4.61094ZM17.8989 0.116699L9.72286 2.21812L8.50414 4.28253L6.05059 4.26355L0.0519409 10.0391L6.05059 15.8128L8.50414 15.7939L9.72286 17.8592L17.8989 19.9787L20.0952 12.1035L18.8584 10.0572L20.0952 8.0108L17.8989 0.116699ZM36.4643 5.9445C35.3766 5.9445 34.6381 6.40199 34.0838 7.24294H34.0477V6.1647H32.1276V14.0939H34.0848V9.59968C34.0848 8.52145 34.7672 7.77256 35.7078 7.77256C36.5943 7.77256 37.2587 8.30219 37.2587 9.23426V14.1129H39.2149V8.92294C39.2339 7.18789 38.1262 5.94545 36.4652 5.94545L36.4643 5.9445ZM29.1558 10.751C29.1558 11.8103 28.5483 12.5411 27.5517 12.5411C26.6472 12.5411 26.0749 12.0295 26.0749 11.0984V6.16375H24.1177V11.4619C24.1177 13.1979 25.1143 14.3312 26.9054 14.3312C28.0311 14.3312 28.6585 13.9107 29.1928 13.1799H29.2498V14.112H31.1319V6.1647H29.1748V10.751H29.1558ZM40.2675 6.1647H42.2228V14.0939H40.2675V6.1647ZM40.2675 3.69785H42.2228V5.28768H40.2675V3.69785ZM53.3155 6.1647L52.1528 9.74585C51.8937 10.4767 51.6915 11.4819 51.6915 11.4819H51.6355C51.6355 11.4819 51.3774 10.4758 51.1192 9.7449L49.8094 6.1647H47.7041L49.8644 11.8103C50.3257 13.0157 50.4728 13.5282 50.4728 13.9658C50.4728 14.6235 50.1216 15.044 49.2921 15.044H48.5356V16.7069H49.7904C51.4134 16.7069 51.9867 16.0672 52.5951 14.3132L55.4189 6.18273H53.3155V6.16375V6.1647ZM45.878 11.7742V7.57039H47.1328V6.18273H45.877V3.69785H43.9199V6.1647H42.8132V7.55331H43.9199V12.2118C43.9199 13.7105 45.0646 14.1129 46.0982 14.1129C46.9467 14.1129 47.1688 14.0749 47.1688 14.0749V12.5411H46.6705C46.2092 12.5601 45.877 12.3589 45.877 11.7732L45.878 11.7742Z" fill="#80BFFF" />
    </g>
  </g>
  <defs>
    <clipPath id="clip0_1_663">
      <rect width="56" height="19.9322" fill="white" transform="translate(0.0519409 0.116699)" />
    </clipPath>
  </defs>
</svg>